# xmcd
#
# Track frame offsets:
#	150
#	15559
#	30409
#	46528
#	63370
#	77587
#	91987
#	111599
#	127638
#	143390
#	156665
#	170449
#	186109
#	200828
#
# Disc length: 2968 seconds
#
# Revision: 1
# Processed by: cddbd v1.5PL3 Copyright (c) Steve Scherf et al.
# Submitted via: audiograbber 1.82.02
#
DISCID=ac0b960e
DTITLE=Bernhard Brink  - Die Schönsten Erinerung 
DYEAR=1993
DGENRE=Blues
TTITLE0=Marie
TTITLE1=Von Casablanca nach Athen
TTITLE2=Gruechische Nach
TTITLE3=Danke, liebe Mutti
TTITLE4=Simmer Sonne blaues Meer
TTITLE5=Liebe ist alles
TTITLE6=Unverwundbar
TTITLE7=Diese Nacht Madeleine
TTITLE8=Blatt im Wind 
TTITLE9=Kamm`ins paradies
TTITLE10=ist Liebe nur ein Wort
TTITLE11=Du,bist nicht Frei
TTITLE12=Liebe ist
TTITLE13=Nikita
EXTD=
EXTT0=
EXTT1=
EXTT2=
EXTT3=
EXTT4=
EXTT5=
EXTT6=
EXTT7=
EXTT8=
EXTT9=
EXTT10=
EXTT11=
EXTT12=
EXTT13=
PLAYORDER=
